<svg xmlns="http://www.w3.org/2000/svg" xmlns:xlink="http://www.w3.org/1999/xlink" id="Layer_1" width="3000" height="1000" x="0" y="0" enable-background="new 0 0 3000 1000" version="1.1" viewBox="0 0 3000 1000" xml:space="preserve"><rect width="3002" height="1000" x="-1" fill="#F15B31"/><rect width="1000" height="1000" x="1000.006" fill="#3AC2D8"/><circle cx="500" cy="500" r="387" fill="#FFF"/><circle cx="1500" cy="501.001" r="387" fill="#0B2C40"/><circle cx="2501.6" cy="500" r="387" fill="#FFF"/><polygon fill="none" stroke="#3AC2D8" stroke-miterlimit="10" stroke-width="10" points="647.083 648 350.098 351.016 647.083 351.016 350.098 648"/><circle cx="1500.675" cy="497.091" r="59.21" fill="none" stroke="#FFF" stroke-miterlimit="10" stroke-width="10"/><circle cx="1500.675" cy="344.97" r="59.21" fill="none" stroke="#FFF" stroke-miterlimit="10" stroke-width="10"/><circle cx="1500.675" cy="647.206" r="59.21" fill="none" stroke="#FFF" stroke-miterlimit="10" stroke-width="10"/><circle cx="1350.556" cy="417.03" r="59.21" fill="none" stroke="#FFF" stroke-miterlimit="10" stroke-width="10"/><circle cx="1350.556" cy="569.149" r="59.21" fill="none" stroke="#FFF" stroke-miterlimit="10" stroke-width="10"/><circle cx="1650.79" cy="417.03" r="59.21" fill="none" stroke="#FFF" stroke-miterlimit="10" stroke-width="10"/><circle cx="1650.79" cy="569.149" r="59.21" fill="none" stroke="#FFF" stroke-miterlimit="10" stroke-width="10"/><circle cx="2496" cy="497.091" r="210" fill="none" stroke="#3AC2D8" stroke-miterlimit="10" stroke-width="10"/><circle cx="2496" cy="497.091" r="189" fill="none" stroke="#3AC2D8" stroke-miterlimit="10" stroke-width="10"/><circle cx="2496" cy="497.091" r="168.21" fill="none" stroke="#3AC2D8" stroke-miterlimit="10" stroke-width="10"/><circle cx="2496" cy="497.091" r="148.025" fill="none" stroke="#3AC2D8" stroke-miterlimit="10" stroke-width="10"/></svg>